<svg xmlns="http://www.w3.org/2000/svg" xmlns:xlink="http://www.w3.org/1999/xlink" version="1.1" width="1000" height="1000" viewBox="0 0 1000 1000" xml:space="preserve">
<desc>Created with Fabric.js 3.5.0</desc>
<defs>
</defs>
<rect x="0" y="0" width="100%" height="100%" fill="#ffffff"/>
<g transform="matrix(37.8788 0 0 37.8788 500.0001 500.0001)" id="995056">
<g style="" vector-effect="non-scaling-stroke">
		<g transform="matrix(1 0 0 1 0 0)">
<path style="stroke: none; stroke-width: 1; stroke-dasharray: none; stroke-linecap: butt; stroke-dashoffset: 0; stroke-linejoin: miter; stroke-miterlimit: 4; is-custom-font: none; font-file-url: none; fill: none; fill-rule: nonzero; opacity: 1;" transform=" translate(-12, -12)" d="M 0 0 h 24 v 24 H 0 z" stroke-linecap="round"/>
</g>
		<g transform="matrix(1 0 0 1 0 0)">
<path style="stroke: none; stroke-width: 1; stroke-dasharray: none; stroke-linecap: butt; stroke-dashoffset: 0; stroke-linejoin: miter; stroke-miterlimit: 4; is-custom-font: none; font-file-url: none; fill: rgb(255,153,0); fill-rule: nonzero; opacity: 1;" transform=" translate(-12, -12)" d="M 6.17 18 a 3.001 3.001 0 0 1 5.66 0 H 22 v 2 H 11.83 a 3.001 3.001 0 0 1 -5.66 0 H 2 v -2 h 4.17 z m 6 -7 a 3.001 3.001 0 0 1 5.66 0 H 22 v 2 h -4.17 a 3.001 3.001 0 0 1 -5.66 0 H 2 v -2 h 10.17 z m -6 -7 a 3.001 3.001 0 0 1 5.66 0 H 22 v 2 H 11.83 a 3.001 3.001 0 0 1 -5.66 0 H 2 V 4 h 4.17 z M 9 6 a 1 1 0 1 0 0 -2 a 1 1 0 0 0 0 2 z m 6 7 a 1 1 0 1 0 0 -2 a 1 1 0 0 0 0 2 z m -6 7 a 1 1 0 1 0 0 -2 a 1 1 0 0 0 0 2 z" stroke-linecap="round"/>
</g>
</g>
</g>
</svg>