<svg xmlns="http://www.w3.org/2000/svg" xmlns:xlink="http://www.w3.org/1999/xlink" version="1.1" width="940" height="788" viewBox="0 0 940 788" xml:space="preserve">
<desc>Created with Fabric.js 3.5.0</desc>
<defs>
</defs>
<rect x="0" y="0" width="100%" height="100%" fill="#ffffff"/>
<g transform="matrix(16.8716 0 0 16.5708 470.0003 393.9995)" id="687712">
<g style="" vector-effect="non-scaling-stroke">
		<g transform="matrix(1 0 0 1 0 0)">
<path style="stroke: none; stroke-width: 1; stroke-dasharray: none; stroke-linecap: butt; stroke-dashoffset: 0; stroke-linejoin: miter; stroke-miterlimit: 4; is-custom-font: none; font-file-url: none; fill: none; fill-rule: nonzero; opacity: 1;" transform=" translate(-12, -12)" d="M 0 0 h 24 v 24 H 0 z" stroke-linecap="round"/>
</g>
		<g transform="matrix(1 0 0 1 0 0)">
<path style="stroke: none; stroke-width: 1; stroke-dasharray: none; stroke-linecap: butt; stroke-dashoffset: 0; stroke-linejoin: miter; stroke-miterlimit: 4; is-custom-font: none; font-file-url: none; fill: rgb(255,153,0); fill-rule: nonzero; opacity: 1;" transform=" translate(-12, -12)" d="M 11.95 7.95 l -1.414 1.414 L 8 6.828 L 8 20 H 6 V 6.828 L 3.465 9.364 L 2.05 7.95 L 7 3 l 4.95 4.95 z m 10 8.1 L 17 21 l -4.95 -4.95 l 1.414 -1.414 l 2.537 2.536 L 16 4 h 2 v 13.172 l 2.536 -2.536 l 1.414 1.414 z" stroke-linecap="round"/>
</g>
</g>
</g>
</svg>