<svg xmlns="http://www.w3.org/2000/svg" xmlns:xlink="http://www.w3.org/1999/xlink" version="1.1" width="940" height="788" viewBox="0 0 940 788" xml:space="preserve">
<desc>Created with Fabric.js 3.5.0</desc>
<defs>
</defs>
<rect x="0" y="0" width="100%" height="100%" fill="#ffffff"/>
<g transform="matrix(25.1949 0 0 25.1949 469.9996 393.9996)" id="818880">
<g style="" vector-effect="non-scaling-stroke">
		<g transform="matrix(1 0 0 1 0 0)">
<path style="stroke: none; stroke-width: 1; stroke-dasharray: none; stroke-linecap: butt; stroke-dashoffset: 0; stroke-linejoin: miter; stroke-miterlimit: 4; is-custom-font: none; font-file-url: none; fill: none; fill-rule: nonzero; opacity: 1;" transform=" translate(-12, -12)" d="M 0 0 h 24 v 24 H 0 z" stroke-linecap="round"/>
</g>
		<g transform="matrix(1 0 0 1 0 0)">
<path style="stroke: none; stroke-width: 1; stroke-dasharray: none; stroke-linecap: butt; stroke-dashoffset: 0; stroke-linejoin: miter; stroke-miterlimit: 4; is-custom-font: none; font-file-url: none; fill: rgb(255,153,0); fill-rule: nonzero; opacity: 1;" transform=" translate(-12, -12)" d="M 3.783 2.826 L 12 1 l 8.217 1.826 a 1 1 0 0 1 0.783 0.976 v 9.987 a 6 6 0 0 1 -2.672 4.992 L 12 23 l -6.328 -4.219 A 6 6 0 0 1 3 13.79 V 3.802 a 1 1 0 0 1 0.783 -0.976 z M 5 4.604 v 9.185 a 4 4 0 0 0 1.781 3.328 L 12 20.597 l 5.219 -3.48 A 4 4 0 0 0 19 13.79 V 4.604 L 12 3.05 L 5 4.604 z M 13 10 h 3 l -5 7 v -5 H 8 l 5 -7 v 5 z" stroke-linecap="round"/>
</g>
</g>
</g>
</svg>