<svg xmlns="http://www.w3.org/2000/svg" xmlns:xlink="http://www.w3.org/1999/xlink" version="1.1" width="940" height="788" viewBox="0 0 940 788" xml:space="preserve">
<desc>Created with Fabric.js 3.5.0</desc>
<defs>
</defs>
<rect x="0" y="0" width="100%" height="100%" fill="#ffffff"/>
<g transform="matrix(25.9966 0 0 25.9966 470.0001 394.0001)" id="985286">
<g style="" vector-effect="non-scaling-stroke">
		<g transform="matrix(1 0 0 1 0 0)">
<path style="stroke: none; stroke-width: 1; stroke-dasharray: none; stroke-linecap: butt; stroke-dashoffset: 0; stroke-linejoin: miter; stroke-miterlimit: 4; is-custom-font: none; font-file-url: none; fill: none; fill-rule: nonzero; opacity: 1;" transform=" translate(-12, -12)" d="M 0 0 h 24 v 24 H 0 z" stroke-linecap="round"/>
</g>
		<g transform="matrix(1 0 0 1 1.018 -0.4)">
<path style="stroke: none; stroke-width: 1; stroke-dasharray: none; stroke-linecap: butt; stroke-dashoffset: 0; stroke-linejoin: miter; stroke-miterlimit: 4; is-custom-font: none; font-file-url: none; fill: rgb(255,153,0); fill-rule: nonzero; opacity: 1;" transform=" translate(-13.018, -11.6)" d="M 17.841 15.659 l 0.176 0.177 l 0.178 -0.177 a 2.25 2.25 0 0 1 3.182 3.182 l -3.36 3.359 l -3.358 -3.359 a 2.25 2.25 0 0 1 3.182 -3.182 z M 12 14 v 2 a 6 6 0 0 0 -6 6 H 4 a 8 8 0 0 1 7.75 -7.996 L 12 14 z m 0 -13 c 3.315 0 6 2.685 6 6 a 5.998 5.998 0 0 1 -5.775 5.996 L 12 13 c -3.315 0 -6 -2.685 -6 -6 a 5.998 5.998 0 0 1 5.775 -5.996 L 12 1 z m 0 2 C 9.79 3 8 4.79 8 7 s 1.79 4 4 4 s 4 -1.79 4 -4 s -1.79 -4 -4 -4 z" stroke-linecap="round"/>
</g>
</g>
</g>
</svg>