<svg xmlns="http://www.w3.org/2000/svg" xmlns:xlink="http://www.w3.org/1999/xlink" version="1.1" width="940" height="788" viewBox="0 0 940 788" xml:space="preserve">
<desc>Created with Fabric.js 3.5.0</desc>
<defs>
</defs>
<rect x="0" y="0" width="100%" height="100%" fill="#ffffff"/>
<g transform="matrix(27.1418 0 0 27.1418 469.9998 393.9998)" id="482879">
<g style="" vector-effect="non-scaling-stroke">
		<g transform="matrix(1 0 0 1 0 0)">
<path style="stroke: none; stroke-width: 1; stroke-dasharray: none; stroke-linecap: butt; stroke-dashoffset: 0; stroke-linejoin: miter; stroke-miterlimit: 4; is-custom-font: none; font-file-url: none; fill: none; fill-rule: nonzero; opacity: 1;" transform=" translate(-12, -12)" d="M 0 0 h 24 v 24 H 0 z" stroke-linecap="round"/>
</g>
		<g transform="matrix(1 0 0 1 0 0.0006)">
<path style="stroke: none; stroke-width: 1; stroke-dasharray: none; stroke-linecap: butt; stroke-dashoffset: 0; stroke-linejoin: miter; stroke-miterlimit: 4; is-custom-font: none; font-file-url: none; fill: rgb(255,153,0); fill-rule: nonzero; opacity: 1;" transform=" translate(-12, -12.0005)" d="M 19.938 8 H 21 a 2 2 0 0 1 2 2 v 4 a 2 2 0 0 1 -2 2 h -1.062 A 8.001 8.001 0 0 1 12 23 v -2 a 6 6 0 0 0 6 -6 V 9 A 6 6 0 1 0 6 9 v 7 H 3 a 2 2 0 0 1 -2 -2 v -4 a 2 2 0 0 1 2 -2 h 1.062 a 8.001 8.001 0 0 1 15.876 0 z M 3 10 v 4 h 1 v -4 H 3 z m 17 0 v 4 h 1 v -4 h -1 z M 7.76 15.785 l 1.06 -1.696 A 5.972 5.972 0 0 0 12 15 a 5.972 5.972 0 0 0 3.18 -0.911 l 1.06 1.696 A 7.963 7.963 0 0 1 12 17 a 7.963 7.963 0 0 1 -4.24 -1.215 z" stroke-linecap="round"/>
</g>
</g>
</g>
</svg>